nColumns=19
nRows=58
DataType=double
version=3
OpenSimVersion=4.1
endheader
time	ground_force_calcn_r_vx	ground_force_calcn_r_vy	ground_force_calcn_r_vz	ground_force_calcn_r_px	ground_force_calcn_r_py	ground_force_calcn_r_pz	ground_force_calcn_r_mx	ground_force_calcn_r_my	ground_force_calcn_r_mz	ground_force_calcn_l_vx	ground_force_calcn_l_vy	ground_force_calcn_l_vz	ground_force_calcn_l_px	ground_force_calcn_l_py	ground_force_calcn_l_pz	ground_force_calcn_l_mx	ground_force_calcn_l_my	ground_force_calcn_l_mz
0	-7.54413	78.3742	0.625069	0.161927	0	-0.136261	-0.00061913	0.00643199	5.1298e-05	0	0	0	0	0	0	0	0	0
0.01	-8.43443	98.3883	-0.91797	0.167841	0	-0.134896	-0.00265346	0.0309528	-0.000288792	0	0	0	0	0	0	0	0	0
0.02	-10.4317	121.761	-2.92486	0.17467	0	-0.133576	-0.00428035	0.0499615	-0.00120014	0	0	0	0	0	0	0	0	0
0.03	-13.6515	148.423	-5.42093	0.181304	0	-0.132495	-0.00559798	0.0608629	-0.00222293	0	0	0	0	0	0	0	0	0
0.04	-18.0768	178.314	-8.40437	0.187722	0	-0.131618	-0.00647286	0.06385	-0.0030094	0	0	0	0	0	0	0	0	0
0.05	-23.6153	211.345	-11.8546	0.193902	0	-0.130919	-0.00679529	0.0608144	-0.00341116	0	0	0	0	0	0	0	0	0
0.06	-30.1263	247.325	-15.7383	0.199818	0	-0.130377	-0.00659871	0.0541729	-0.00344724	0	0	0	0	0	0	0	0	0
0.07	-37.4177	285.927	-20.0051	0.205435	0	-0.129973	-0.00604243	0.0461732	-0.00323055	0	0	0	0	0	0	0	0	0
0.08	-45.2407	326.642	-24.5807	0.210721	0	-0.129688	-0.00535199	0.0386419	-0.00290791	0	0	0	0	0	0	0	0	0
0.09	-53.2864	368.782	-29.3655	0.215643	0	-0.12951	-0.00475867	0.0329336	-0.00262245	0	0	0	0	0	0	0	0	0
0.1	-61.2062	411.514	-34.245	0.220179	0	-0.129418	-0.0043962	0.0295574	-0.00245968	0	0	0	0	0	0	0	0	0
0.11	-68.6632	453.969	-39.1092	0.22433	0	-0.129398	-0.00415526	0.0274726	-0.00236675	0	0	0	0	0	0	0	0	0
0.12	-75.3685	495.309	-43.8578	0.228112	0	-0.129432	-0.00367883	0.0241767	-0.00214076	0	0	0	0	0	0	0	0	0
0.13	-81.0824	534.731	-48.3919	0.231555	0	-0.129505	-0.00255171	0.0168283	-0.00152292	0	0	0	0	0	0	0	0	0
0.14	-85.6267	571.449	-52.6135	0.234698	0	-0.129608	-0.000442433	0.00295268	-0.000271854	0	0	0	0	0	0	0	0	0
0.15	-88.8936	604.719	-56.4278	0.237592	0	-0.12973	0.00283038	-0.0192543	0.00179667	0	0	0	0	0	0	0	0	0
0.16	-90.8448	633.872	-59.7498	0.240289	0	-0.129861	0.00730839	-0.0509945	0.00480682	0	0	0	0	0	0	0	0	0
0.17	-91.5073	658.358	-62.5088	0.242849	0	-0.129996	0.0129122	-0.0928978	0.00882032	0	0	0	0	0	0	0	0	0
0.18	-90.9575	677.778	-64.6522	0.245329	0	-0.130128	0.0194497	-0.144931	0.0138248	0	0	0	0	0	0	0	0	0
0.19	-89.303	691.907	-66.1509	0.247775	0	-0.130254	0.0266511	-0.206489	0.0197417	0	0	0	0	0	0	0	0	0
0.2	-86.669	700.697	-66.9994	0.250233	0	-0.130369	0.0342148	-0.276618	0.0264497	0	0	0	0	0	0	0	0	0
0.21	-83.1893	704.27	-67.215	0.252743	0	-0.130467	0.0418422	-0.354231	0.0338075	0	0	0	0	0	0	0	0	0
0.22	-79.0044	702.9	-66.8353	0.255338	0	-0.130545	0.0492419	-0.438103	0.0416571	0	0	0	0	0	0	0	0	0
0.23	-74.2599	696.991	-65.9159	0.258053	0	-0.130596	0.0561325	-0.52685	0.0498254	0	0	0	0	0	0	0	0	0
0.24	-69.1036	687.058	-64.5271	0.260918	0	-0.130613	0.0622712	-0.619128	0.0581472	0	0	0	0	0	0	0	0	0
0.25	-63.681	673.701	-62.7506	0.263966	0	-0.130588	0.0674863	-0.713958	0.0665003	0	0	0	0	0	0	0	0	0
0.26	-58.1297	657.575	-60.6766	0.267224	0	-0.130514	0.0716785	-0.810842	0.074819	0	0	0	0	0	0	0	0	0
0.27	-52.5726	639.369	-58.4001	0.270716	0	-0.130379	0.074807	-0.909775	0.083099	0	0	0	0	0	0	0	0	0
0.28	-47.1145	619.779	-56.0178	0.274456	0	-0.130177	0.076874	-1.01126	0.0914012	0	0	0	0	0	0	0	0	0
0.29	-41.8392	599.495	-53.6244	0.278453	0	-0.1299	0.077885	-1.11598	0.0998235	0	0	0	0	0	0	0	0	0
0.3	-36.8095	579.184	-51.3079	0.282702	0	-0.129542	0.0778135	-1.22437	0.108462	0	0	0	0	0	0	0	0	0
0.31	-32.0676	559.487	-49.1463	0.287187	0	-0.129102	0.0765929	-1.33632	0.117385	0	0	0	0	0	0	0	0	0
0.32	-27.6361	540.997	-47.2045	0.291876	0	-0.128584	0.074125	-1.45105	0.126611	0	0	0	0	0	0	0	0	0
0.33	-23.5197	524.255	-45.5315	0.296728	0	-0.127997	0.0703099	-1.56721	0.136112	0	0	0	0	0	0	0	0	0
0.34	-19.7063	509.728	-44.1588	0.301683	0	-0.127362	0.0650775	-1.68331	0.145829	0	0	0	0	0	0	0	0	0
0.35	-16.1683	497.805	-43.1016	0.306666	0	-0.126701	0.0583969	-1.79798	0.155675	0	0	0	0	0	0	0	0	0
0.36	-12.863	488.783	-42.3605	0.311595	0	-0.12604	0.0502696	-1.91021	0.165548	0	0	0	0	0	0	0	0	0
0.37	-9.73434	482.865	-41.9272	0.31638	0	-0.125406	0.0407086	-2.01932	0.175338	0	0	0	0	0	0	0	0	0
0.38	-6.71736	480.145	-41.7897	0.320936	0	-0.124823	0.0297241	-2.12462	0.184918	0	0	0	0	0	0	0	0	0
0.39	-3.74352	480.61	-41.9363	0.325194	0	-0.124308	0.0173298	-2.22488	0.194135	0	0	0	0	0	0	0	0	0
0.4	-0.745605	484.146	-42.3547	0.329108	0	-0.123872	0.00357003	-2.31814	0.202799	0	0	0	0	0	0	0	0	0
0.41	2.34039	490.544	-43.0295	0.332659	0	-0.12352	-0.0114583	-2.40164	0.210667	0	0	0	0	0	0	0	0	0
0.42	5.5742	499.517	-43.9391	0.33585	0	-0.12325	-0.0275864	-2.47208	0.217452	0	0	0	0	0	0	0	0	0
0.43	9.00978	510.705	-45.0518	0.338703	0	-0.123059	-0.0445654	-2.52612	0.222842	0	0	0	0	0	0	0	0	0
0.44	12.6939	523.683	-46.3244	0.341253	0	-0.122942	-0.0620784	-2.56102	0.226545	0	0	0	0	0	0	0	0	0
0.45	16.6643	537.966	-47.7018	0.343542	0	-0.122893	-0.0797607	-2.57488	0.228317	0	0	0	0	0	0	0	0	0
0.46	20.9472	553.022	-49.1191	0.345611	0	-0.122902	-0.0972184	-2.56664	0.227968	0	0	0	0	0	0	0	0	0
0.47	25.5553	568.274	-50.5046	0.347506	0	-0.122966	-0.114041	-2.53593	0.225377	0	0	0	0	0	0	0	0	0
0.48	30.4835	583.111	-51.7828	0.349263	0	-0.123079	-0.129798	-2.48286	0.220489	0	0	0	0	0	0	0	0	0
0.49	35.705	596.889	-52.8771	0.350917	0	-0.123237	-0.144039	-2.40793	0.213313	0	0	0	0	0	0	0	0	0
0.5	41.1678	608.945	-53.7124	0.352497	0	-0.123437	-0.156301	-2.31198	0.203929	0	0	0	0	0	0	0	0	0
0.51	46.7945	618.609	-54.2185	0.354031	0	-0.123673	-0.166135	-2.19626	0.192493	0	0	0	0	0	0	0	0	0
0.52	52.4819	625.219	-54.333	0.355538	0	-0.123947	-0.173141	-2.06264	0.179248	0	0	0	0	0	0	0	0	0
0.53	58.1019	628.14	-54.0041	0.357042	0	-0.124254	-0.177023	-1.91379	0.164538	0	0	0	0	0	0	0	0	0
0.54	63.5027	626.784	-53.1927	0.358553	0	-0.124596	-0.177648	-1.75342	0.148806	0	0	0	0	0	0	0	0	0
0.55	68.5115	620.638	-51.8741	0.360088	0	-0.124971	-0.175102	-1.58623	0.13258	6.6665	25.4089	-2.90053	0.722374	0	-0.316874	0.146908	0.559931	-0.0639185
0.56	72.9384	609.295	-50.0417	0.361655	0	-0.125378	-0.1697	-1.4176	0.116428	6.22265	42.3424	-2.47967	0.764557	0	-0.330418	0.0960044	0.653269	-0.0382569
0.57	76.5843	592.482	-47.7087	0.363267	0	-0.125818	-0.161945	-1.25286	0.100885	4.98455	63.1509	-1.84277	0.788231	0	-0.336843	0.0545974	0.691713	-0.0201845
